# xmcd
#
# Track frame offsets:
# 150
# 21691
# 55088
# 73126
# 113625
#
# Disc length: 1893 seconds
#
#
# Revision: 3
# Processed by: cddbd v1.4PL0 Copyright (c) Steve Scherf et al.
# Submitted via: FreeRIP 2.52 
#
DISCID=44076305
DTITLE=G.Benson - The Other Side of Abbey Road
DYEAR=1900
DGENRE=
TTITLE0=Golden Slumbers/You Never Give Me Your Money
TTITLE1=Because/Come Together
TTITLE2=Oh! Darling
TTITLE3=Here Comes The Sun/I Want You (She's So Heavy)
TTITLE4=Something/Octopus's Garden/ The End
EXTD=
EXTT0=
EXTT1=
EXTT2=
EXTT3=
EXTT4=
PLAYORDER=
